<svg width="50" height="50" viewBox="0 0 50 50" fill="none" xmlns="http://www.w3.org/2000/svg">
<g filter="url(#filter0_d_0_713)">
<rect x="5" y="1" width="40" height="40" fill="#C4C4C4"/>
<rect x="5" y="1" width="40" height="40" stroke="black"/>
</g>
<g filter="url(#filter1_d_0_713)">
<rect x="5" y="1" width="40" height="40" rx="20" fill="#FF3E79"/>
<rect x="5" y="1" width="40" height="40" rx="20" stroke="black"/>
</g>
<path fill-rule="evenodd" clip-rule="evenodd" d="M16 14C16 13.4477 16.4477 13 17 13H33C33.5523 13 34 13.4477 34 14C34 14.5523 33.5523 15 33 15H17C16.4477 15 16 14.5523 16 14ZM16 21C16 20.4477 16.4477 20 17 20H25C25.5523 20 26 20.4477 26 21C26 21.5523 25.5523 22 25 22H17C16.4477 22 16 21.5523 16 21ZM17 27C16.4477 27 16 27.4477 16 28C16 28.5523 16.4477 29 17 29H29C29.5523 29 30 28.5523 30 28C30 27.4477 29.5523 27 29 27H17Z" fill="white"/>
<defs>
<filter id="filter0_d_0_713" x="0.5" y="0.5" width="49" height="49" filterUnits="userSpaceOnUse" color-interpolation-filters="sRGB">
<feFlood flood-opacity="0" result="BackgroundImageFix"/>
<feColorMatrix in="SourceAlpha" type="matrix" values="0 0 0 0 0 0 0 0 0 0 0 0 0 0 0 0 0 0 127 0" result="hardAlpha"/>
<feOffset dy="4"/>
<feGaussianBlur stdDeviation="2"/>
<feComposite in2="hardAlpha" operator="out"/>
<feColorMatrix type="matrix" values="0 0 0 0 0 0 0 0 0 0 0 0 0 0 0 0 0 0 0.25 0"/>
<feBlend mode="normal" in2="BackgroundImageFix" result="effect1_dropShadow_0_713"/>
<feBlend mode="normal" in="SourceGraphic" in2="effect1_dropShadow_0_713" result="shape"/>
</filter>
<filter id="filter1_d_0_713" x="0.5" y="0.5" width="49" height="49" filterUnits="userSpaceOnUse" color-interpolation-filters="sRGB">
<feFlood flood-opacity="0" result="BackgroundImageFix"/>
<feColorMatrix in="SourceAlpha" type="matrix" values="0 0 0 0 0 0 0 0 0 0 0 0 0 0 0 0 0 0 127 0" result="hardAlpha"/>
<feOffset dy="4"/>
<feGaussianBlur stdDeviation="2"/>
<feComposite in2="hardAlpha" operator="out"/>
<feColorMatrix type="matrix" values="0 0 0 0 0 0 0 0 0 0 0 0 0 0 0 0 0 0 0.25 0"/>
<feBlend mode="normal" in2="BackgroundImageFix" result="effect1_dropShadow_0_713"/>
<feBlend mode="normal" in="SourceGraphic" in2="effect1_dropShadow_0_713" result="shape"/>
</filter>
</defs>
</svg>
